<svg version="1.1" id="Layer_1" xmlns="http://www.w3.org/2000/svg" xmlns:xlink="http://www.w3.org/1999/xlink" x="0px" y="0px"
	 width="100%" viewBox="0 0 1024 816" enable-background="new 0 0 1024 816" xml:space="preserve">
<path fill="#000000" opacity="1.000000" stroke="none" 
	d="
M521.098877,469.323303 
	C508.119568,468.229645 495.991882,465.414124 484.119629,461.389374 
	C475.359497,458.419586 470.067474,452.214874 467.292755,443.611511 
	C466.526123,441.234406 466.035522,438.742096 465.036591,436.470459 
	C459.476410,423.825806 462.390228,412.480560 468.873566,400.859680 
	C478.375763,383.827789 492.636749,371.912506 508.260620,361.202545 
	C513.327087,357.729584 519.010193,356.959686 524.981140,358.685272 
	C539.785095,362.963531 553.888794,368.203766 561.333313,383.373993 
	C572.105774,405.325836 565.393311,443.095001 547.518738,459.783417 
	C540.269714,466.551422 531.678894,470.110870 521.098877,469.323303 
M507.029633,416.599304 
	C510.760559,418.203613 514.189636,417.933014 516.945312,414.712341 
	C520.145264,410.972382 521.146667,406.555084 520.485657,401.736176 
	C520.337585,400.656891 519.506104,400.056183 518.585022,399.607025 
	C514.654358,397.690216 508.696320,399.939484 505.660492,404.481415 
	C502.421265,409.327606 502.624176,412.696442 507.029633,416.599304 
z"/>
<path fill="#000000" opacity="1.000000" stroke="none" 
	d="
M338.734314,447.199097 
	C332.283264,436.633575 326.550934,426.321259 325.358154,413.870300 
	C324.016541,399.865692 335.658569,375.084839 353.303101,369.490753 
	C367.154541,365.099274 380.303925,362.743958 393.975708,369.191986 
	C399.535767,371.814209 405.448151,373.693451 410.990326,376.348785 
	C427.014709,384.026459 436.047821,401.666901 433.005310,419.275085 
	C431.615173,427.320465 429.149658,435.095917 426.362427,442.778961 
	C424.310913,448.433990 420.490936,452.212341 415.316315,455.068542 
	C397.024139,465.165039 377.538177,467.350830 357.255829,463.881104 
	C351.873138,462.960236 347.337158,460.062317 344.157745,455.426971 
	C342.368561,452.818481 340.667938,450.149261 338.734314,447.199097 
M377.756622,415.690704 
	C381.016052,415.937744 384.042175,415.082947 386.843018,413.525177 
	C391.279938,411.057434 391.770996,407.210419 387.998566,403.797363 
	C384.129578,400.297058 379.783081,400.731293 375.474579,402.905945 
	C372.394836,404.460388 369.475372,406.749023 369.898499,410.413757 
	C370.312042,413.995209 373.654755,415.153381 377.756622,415.690704 
z"/>
<path fill="#000000" opacity="1.000000" stroke="none" 
	d="
M296.012512,388.525055 
	C295.121552,392.977722 293.614044,396.585480 289.658539,398.701447 
	C297.575378,412.537018 298.128632,427.613739 298.304230,442.761047 
	C298.315796,443.759338 298.299347,444.763306 298.207977,445.756592 
	C296.667633,462.501556 280.660553,479.556274 263.831360,480.394623 
	C248.637421,481.151550 235.437836,475.571503 226.411560,462.472412 
	C224.173721,459.224854 222.874664,455.353302 223.906830,451.545624 
	C227.923294,436.728821 227.546524,421.196106 231.640305,406.389862 
	C235.423859,392.705688 235.931061,378.493713 237.768021,364.494995 
	C239.042114,354.785583 241.594421,345.681183 252.294617,341.996521 
	C259.106140,339.650940 266.092651,340.244843 273.063904,341.022980 
	C274.714752,341.207275 276.350281,341.550964 277.983154,341.870850 
	C290.740021,344.369934 294.624756,348.767426 296.316071,361.783813 
	C297.461365,370.598419 297.681274,379.348022 296.012512,388.525055 
M260.373901,372.611664 
	C257.829987,374.594299 258.473450,376.542175 260.535889,378.342499 
	C262.875427,380.384674 265.535980,382.029785 268.575775,380.092041 
	C270.752045,378.704803 272.034576,376.320496 271.311951,373.678101 
	C270.544708,370.872833 268.206451,370.077515 265.442352,370.269928 
	C263.697052,370.391449 262.337952,371.298615 260.373901,372.611664 
M265.559692,435.810883 
	C262.619690,433.856232 259.498108,432.965149 256.153381,434.623718 
	C253.948624,435.717010 252.786514,437.390472 254.275970,439.883942 
	C255.969055,442.718292 258.616730,443.714142 261.556030,442.647644 
	C264.262421,441.665680 267.455505,440.483490 265.559692,435.810883 
z"/>
<path fill="#000000" opacity="1.000000" stroke="none" 
	d="
M668.925171,367.686401 
	C678.734131,367.196777 686.059875,370.964569 692.281799,377.782715 
	C699.124390,385.280884 705.503723,392.720093 704.716736,403.906281 
	C704.319824,409.547058 708.942871,413.884430 709.585938,419.468536 
	C710.619324,428.442383 710.827209,437.438812 710.043945,446.367706 
	C709.106567,457.052917 695.297241,465.905762 684.837158,463.075836 
	C680.302429,461.848999 678.912292,457.999573 677.815674,454.111389 
	C674.742004,443.213531 671.350037,432.445709 666.579041,422.137451 
	C662.089294,412.436646 655.233276,406.885529 648.703674,407.989166 
	C639.536621,409.538574 631.422424,418.815704 630.411072,429.176147 
	C630.048218,432.893707 629.358765,436.431854 627.167786,439.504364 
	C620.617493,448.689880 606.367371,450.230682 598.184509,442.386047 
	C592.833862,437.256592 592.842041,430.089142 593.522888,423.622681 
	C595.156921,408.105591 597.345947,392.661102 597.962341,377.033112 
	C598.200989,370.983185 602.913879,367.009033 610.012146,365.528442 
	C615.324951,364.420288 618.928467,366.234375 622.347046,371.738342 
	C622.434875,371.879791 622.523438,372.020782 622.609070,372.163574 
	C627.955688,381.084442 628.015320,381.199677 637.664917,376.199463 
	C647.351501,371.180145 657.089539,366.572571 668.925171,367.686401 
z"/>
<path fill="#000000" opacity="1.000000" stroke="none" 
	d="
M764.694092,362.906189 
	C774.009216,364.283142 783.049316,364.611206 791.306946,368.791351 
	C795.370422,370.848328 797.854187,373.710419 798.459717,378.256592 
	C798.854309,381.219147 799.638123,384.134674 799.948975,387.102539 
	C800.550049,392.842163 799.567322,397.947693 794.373230,401.650757 
	C790.817810,404.185547 788.274292,407.775513 786.285400,411.678284 
	C783.038086,418.050323 785.526062,423.231750 792.609375,424.634277 
	C796.246643,425.354462 799.880310,424.972076 803.471191,423.954376 
	C807.467712,422.821686 811.460327,421.508240 815.547852,420.902771 
	C821.757629,419.982941 825.896790,422.895752 827.301819,429.043732 
	C829.086182,436.851349 827.831848,444.942932 829.306335,452.858063 
	C829.917542,456.139404 826.662048,458.358185 823.939087,460.098541 
	C815.090393,465.754089 805.004211,467.040222 794.904968,468.262665 
	C790.781982,468.761719 786.638367,469.122711 782.536255,469.755035 
	C770.712341,471.577667 758.371277,465.988312 752.247864,455.796082 
	C750.107361,452.233429 748.242188,448.506470 746.200867,444.882904 
	C738.525940,431.259186 741.397766,419.003143 750.981873,407.597046 
	C754.286865,403.663788 754.279236,403.657379 755.220947,399.796021 
	C752.457336,397.499786 748.829590,397.348785 745.576660,396.278625 
	C733.207947,392.209595 728.911560,380.332642 735.803894,369.145966 
	C739.170593,363.681702 744.796997,363.242584 750.249695,362.839478 
	C754.883057,362.496979 759.566284,362.830750 764.694092,362.906189 
z"/>
</svg>